# xmcd
#
# Track frame offsets:
#	150
#	15445
#	33250
#	50722
#	67470
#	84617
#	101867
#	122037
#	141587
#	161192
#	180475
#	195247
#
# Disc length: 2845
#
# Revision: 2
# Processed by: cddbd v1.5.1PL0 Copyright (c) Steve Scherf et al.
# Submitted via: audiograbber 1.80
# Normalized: r1:DSETVAR1
#
DISCID=ad0b1b0c
DTITLE=Various Artist - Adrenalina Discotheque
DYEAR=1900
DGENRE=
TTITLE0=EMotion - The N
TTITLE1=Everithing but the Girl - Missing
TTITLE2=NigthCrawlers - Don´t Let The Feeling Go
TTITLE3=Moby - Every Time You Touch Me
TTITLE4=Sin With Sebastian - Golden Boy
TTITLE5=Papa Dee - The First Cut Is The Deepest
TTITLE6=Toni Braxton - You´re Makin´me High
TTITLE7=Garbage - Stupid Girl
TTITLE8=Goo Goo Dolls - Name
TTITLE9=Zoe - Hammer
TTITLE10=Mr. President - Easy Come Easy Go
TTITLE11=Anthrax - Fueled
EXTD=
EXTT0=
EXTT1=
EXTT2=
EXTT3=
EXTT4=
EXTT5=
EXTT6=
EXTT7=
EXTT8=
EXTT9=
EXTT10=
EXTT11=
PLAYORDER=
